<?xml version="1.0" ?><svg id="Layer_1" style="enable-background:new 0 0 99 94.1;" version="1.1" viewBox="0 0 99 94.1" xml:space="preserve" xmlns="http://www.w3.org/2000/svg" xmlns:xlink="http://www.w3.org/1999/xlink"><path d="M26.3,84.4c0,0-4-1.4-7,0.3c-1.2,0.7-2.2,1.8-2.8,3.5C19.4,90,23,91.1,27,90.4c0.2,0,0.3,0,0.5,0c0.6,0,1.2,0.2,1.7,0.6  c0,0,5.3,4.1,10.2,3c2.4-0.5,4.4-2.3,6-5.2l1.4-78.6l-3.5-4.5C39.9,1.4,34-0.8,28.6,0.3c-3.9,0.8-6.4,2.8-7.5,6.1l-0.3,8.3  c-0.1,1.5-1.3,2.6-2.7,2.6c0,0-0.1,0-0.1,0c-1.5-0.1-2.7-1.3-2.6-2.8l0.2-3.8c-2.9,1.9-6.4,4.9-7.8,8.8c-0.8,2.2-0.8,4.5,0,6.9  c2.3-0.7,5.7-0.8,10.4,1.1c1.4,0.6,2.1,2.2,1.5,3.6c-0.4,1.1-1.5,1.7-2.5,1.7c-0.3,0-0.7-0.1-1-0.2c-5.4-2.3-7.8-0.6-7.9-0.5  C7.2,32.9-4.8,44.4,2.2,53.9c2.5,1.6,8.6,4.5,12,2.1c1.2-0.9,2.9-0.6,3.8,0.7c0.9,1.2,0.6,2.9-0.7,3.8c-1.9,1.4-4.1,1.9-6.3,1.9  c-3.6,0-7.1-1.4-9.5-2.6c-1.3,3.7-2.8,10.7,1.7,16.2c0.6-4,2.6-6.3,2.7-6.4c1-1.1,2.8-1.2,3.9-0.1c1.1,1,1.2,2.7,0.2,3.8  c-0.1,0.2-2.2,2.8-1.1,7.6c0.5,0.7,1.6,2.2,3.3,3.9c1.1-2.1,2.6-3.7,4.6-4.8c5.1-2.8,11.2-0.7,11.4-0.6c1.4,0.5,2.2,2.1,1.7,3.5  C29.3,84.2,27.7,84.9,26.3,84.4z M22.8,45.5c-0.5,1.4-2,2.2-3.5,1.7C12,44.8,8.1,47,7.9,47.1c-0.4,0.3-0.9,0.4-1.4,0.4  c-0.9,0-1.8-0.5-2.3-1.3C3.4,45,3.8,43.3,5,42.5c0.2-0.2,6.1-3.8,16-0.4C22.5,42.5,23.3,44.1,22.8,45.5z M38.9,79.4  c-0.5,0.7-1.3,1-2.1,1c-0.6,0-1.2-0.2-1.7-0.6c-5.6-4.6-3-12.2-0.6-16.1c0.8-1.3,2.5-1.6,3.8-0.8c1.3,0.8,1.6,2.5,0.8,3.8  c-0.1,0.1-3.8,6.2-0.6,8.9C39.6,76.5,39.8,78.2,38.9,79.4z M26,20.4c0.9-4.1,3-7.1,6.1-8.8c5.1-2.8,11.2-0.7,11.4-0.6  c1.4,0.5,2.2,2.1,1.7,3.5c-0.5,1.4-2.1,2.2-3.5,1.7c0,0-4-1.4-7,0.3c-1.6,0.9-2.7,2.6-3.3,5.2c-0.3,1.3-1.4,2.1-2.7,2.1  c-0.2,0-0.4,0-0.6-0.1C26.5,23.3,25.6,21.8,26,20.4z M28.8,54c-0.4,0.2-0.8,0.3-1.2,0.3c-1,0-2-0.6-2.5-1.6c-0.6-1.4-0.1-3,1.3-3.6  c0.4-0.2,7.3-3.6,6.9-9.7c-1.5,0.3-3.1,0.5-5,0.6c0,0,0,0,0,0c-1.5,0-2.7-1.2-2.7-2.7c0-1.5,1.2-2.7,2.7-2.8  c7.7-0.1,10.7-3.5,10.8-3.7c1-1.1,2.7-1.3,3.8-0.4c1.2,0.9,1.3,2.6,0.4,3.8c-0.1,0.1-1.6,1.9-4.6,3.4C40.2,46.1,33.1,52,28.8,54z"/><path d="M93.1,69.5c0.1,0.1,2.1,2.4,2.7,6.4c4.6-5.5,3.1-12.5,1.7-16.2c-2.4,1.2-5.9,2.6-9.5,2.6c-2.2,0-4.3-0.5-6.3-1.9  c-1.2-0.9-1.5-2.6-0.7-3.8c0.9-1.2,2.6-1.5,3.8-0.7c3.4,2.4,9.6-0.6,12-2.1c6.9-9.5-5.3-21.3-5.9-21.9c-0.2-0.2-2.6-1.7-7.9,0.5  c-0.3,0.1-0.7,0.2-1,0.2c-1.1,0-2.1-0.6-2.5-1.7c-0.6-1.4,0.1-3,1.5-3.6c4.7-2,8.2-1.8,10.4-1.1c0.8-2.4,0.8-4.7,0-6.9  c-1.3-3.8-4.8-6.8-7.8-8.8l0.2,3.8c0.1,1.5-1.1,2.8-2.6,2.8c0,0-0.1,0-0.1,0c-1.5,0-2.7-1.1-2.7-2.6l-0.3-8.2  c-1.1-3.3-3.5-5.4-7.5-6.1C65-0.8,59.1,1.3,55.8,5.6l-3.5,4.5l1.4,78.6c1.6,2.9,3.6,4.7,6,5.2c4.9,1.1,10.1-2.9,10.2-3  c0.6-0.5,1.4-0.7,2.2-0.5c4,0.8,7.6-0.4,10.5-2.2c-0.6-1.6-1.6-2.8-2.8-3.5c-2.9-1.6-6.9-0.3-6.9-0.3c-1.4,0.5-3-0.2-3.5-1.7  c-0.5-1.4,0.2-3,1.7-3.5c0.3-0.1,6.3-2.2,11.4,0.6c2,1.1,3.4,2.7,4.6,4.8c1.7-1.7,2.9-3.2,3.3-3.9c1.1-4.9-1.1-7.5-1.1-7.6  c-1-1.1-0.9-2.8,0.2-3.8C90.4,68.4,92.1,68.4,93.1,69.5z M54,14.4c-0.5-1.4,0.2-3,1.7-3.5c0.3-0.1,6.3-2.2,11.4,0.6  c3.1,1.7,5.1,4.6,6.1,8.8c0.3,1.5-0.6,2.9-2.1,3.3c-0.2,0-0.4,0.1-0.6,0.1c-1.2,0-2.4-0.9-2.7-2.1c-0.6-2.6-1.7-4.3-3.4-5.2  c-2.9-1.6-6.9-0.3-6.9-0.3C56,16.6,54.5,15.9,54,14.4z M64,79.7c-0.5,0.4-1.1,0.6-1.7,0.6c-0.8,0-1.6-0.3-2.1-1  c-1-1.2-0.8-2.9,0.4-3.8c3.3-2.7-0.5-8.8-0.6-8.9c-0.8-1.3-0.4-3,0.9-3.8c1.3-0.8,3-0.4,3.8,0.8C67,67.5,69.6,75.2,64,79.7z   M73.8,52.7c-0.5,1-1.4,1.6-2.5,1.6c-0.4,0-0.8-0.1-1.2-0.3c-4.2-2-11.4-7.9-9.9-16.4c-3.1-1.5-4.5-3.3-4.6-3.4  c-0.9-1.2-0.7-2.9,0.4-3.8c1.2-0.9,2.9-0.7,3.8,0.4c0.2,0.2,3.2,3.6,10.8,3.7c1.5,0,2.7,1.3,2.7,2.8c0,1.5-1.2,2.7-2.7,2.7  c0,0,0,0,0,0c-1.9,0-3.5-0.3-5-0.6c-0.3,6.2,6.8,9.7,6.9,9.7C73.9,49.7,74.5,51.3,73.8,52.7z M76.3,45.5c-0.5-1.4,0.3-3,1.7-3.5  c9.9-3.3,15.8,0.3,16,0.4c1.3,0.8,1.7,2.5,0.8,3.8c-0.5,0.8-1.4,1.3-2.3,1.3c-0.5,0-1-0.1-1.4-0.4c-0.2-0.1-4.2-2.3-11.4,0.1  C78.3,47.7,76.7,46.9,76.3,45.5z"/></svg>