<?xml version="1.0" ?><svg id="Layer_1" style="enable-background:new 0 0 48 48;" version="1.1" viewBox="0 0 48 48" xml:space="preserve" xmlns="http://www.w3.org/2000/svg" xmlns:xlink="http://www.w3.org/1999/xlink"><g><polygon points="8.4,44.5 8.4,43.2 8.4,40.2 8.4,34.3 8.4,31.3 8.4,25.5 8.4,22.5 8.4,16.7 8.4,13.7 8.4,7.8 8.4,4.8 8.4,0.5    5.4,0.5 5.4,4.8 0.5,4.8 0.5,7.8 5.4,7.8 5.4,13.7 0.5,13.7 0.5,16.7 5.4,16.7 5.4,22.5 0.5,22.5 0.5,25.5 5.4,25.5 5.4,31.3    0.5,31.3 0.5,34.3 5.4,34.3 5.4,40.2 0.5,40.2 0.5,43.2 5.4,43.2 5.4,47.5 47.5,47.5 47.5,44.5  "/><rect height="11.4" width="6.5" x="13.3" y="28.4"/><rect height="23.2" width="6.5" x="26.4" y="16.6"/><rect height="37.8" width="6.5" x="39.5" y="2"/></g></svg>