<?xml version="1.0" ?><!DOCTYPE svg  PUBLIC '-//W3C//DTD SVG 1.1//EN'  'http://www.w3.org/Graphics/SVG/1.1/DTD/svg11.dtd'><svg height="512px" style="enable-background:new 0 0 512 512;" version="1.1" viewBox="0 0 512 512" width="512px" xml:space="preserve" xmlns="http://www.w3.org/2000/svg" xmlns:xlink="http://www.w3.org/1999/xlink"><g id="C_-_30_x2C__Graph_x2C__Analysis_x2C__analytic_x2C__analytics_x2C__chart_x2C__data"><g><path d="M112.317,403.696c-2.587,0-4.686-2.098-4.686-4.686V46.17H72.101v352.841    c0,2.588-2.098,4.686-4.686,4.686H45.154v35.32h22.261c2.588,0,4.686,2.098,4.686,4.686v22.128h35.531v-22.128    c0-2.588,2.098-4.686,4.686-4.686h354.529v-35.32H112.317z" style="fill-rule:evenodd;clip-rule:evenodd;"/><path d="M157.218,108.736h41.311l8.648,32.126c0.435,1.613,1.696,2.874,3.309,3.307    c1.614,0.434,3.336-0.026,4.521-1.204l54.687-54.43l72.81,72.467c0.911,0.907,2.107,1.364,3.306,1.364    c1.107,0,2.215-0.39,3.105-1.176l75.52-66.816l6.736,20.105c0.656,1.96,2.482,3.198,4.441,3.198c0.493,0,0.996-0.078,1.488-0.244    c2.455-0.822,3.777-3.478,2.955-5.931l-8.98-26.811c-0.035-0.107-0.094-0.207-0.139-0.312c-0.059-0.141-0.115-0.281-0.187-0.415    c-0.023-0.044-0.038-0.092-0.063-0.135c-0.052-0.09-0.12-0.164-0.178-0.248c-0.087-0.133-0.175-0.263-0.276-0.385    c-0.033-0.04-0.058-0.087-0.092-0.125c0-0.001-0.001-0.002-0.001-0.002c-0.016-0.018-0.037-0.031-0.053-0.049    c-0.048-0.051-0.104-0.092-0.152-0.142c-0.112-0.112-0.223-0.222-0.347-0.323c-0.043-0.035-0.081-0.077-0.124-0.11    c-0.082-0.062-0.172-0.107-0.258-0.163c-0.121-0.081-0.239-0.159-0.369-0.228c-0.05-0.027-0.096-0.061-0.146-0.085    c-0.108-0.053-0.223-0.086-0.334-0.13c-0.086-0.034-0.162-0.083-0.251-0.112l-26.945-8.936c-2.457-0.812-5.108,0.516-5.923,2.973    c-0.814,2.456,0.517,5.108,2.973,5.923l19.218,6.373l-71.43,63.196l-72.999-72.654c-1.828-1.819-4.781-1.819-6.61,0    l-52.263,52.018l-7.48-27.789c-0.551-2.045-2.406-3.468-4.524-3.468h-44.902c-2.587,0-4.686,2.098-4.686,4.686    S154.631,108.736,157.218,108.736z" style="fill-rule:evenodd;clip-rule:evenodd;"/><path d="M148.235,323.254c1.327,0,2.645-0.561,3.572-1.65L184.03,283.7    l50.536,55.887c0.896,0.991,2.162,1.543,3.475,1.543c0.254,0,0.511-0.021,0.767-0.063c1.573-0.261,2.906-1.305,3.537-2.77    l24.784-57.563l67.224,41.813c0.742,0.461,1.6,0.706,2.474,0.706h72.044l-13.078,19.521c-1.44,2.15-0.865,5.061,1.285,6.501    c0.801,0.536,1.707,0.794,2.604,0.794c1.511,0,2.993-0.729,3.897-2.078l17.956-26.803c0-0.001,0-0.002,0.002-0.003l0.006-0.01    c0.003-0.005,0.005-0.01,0.008-0.015c0.086-0.13,0.148-0.271,0.221-0.409c0.068-0.13,0.147-0.253,0.205-0.389    c0.046-0.111,0.07-0.228,0.106-0.34c0.016-0.047,0.028-0.093,0.042-0.14c0.039-0.132,0.091-0.258,0.117-0.393    c0.002-0.007,0.004-0.013,0.006-0.02c0.031-0.166,0.035-0.333,0.049-0.501c0.012-0.133,0.037-0.265,0.039-0.4v-0.003    c0-0.001,0-0.002,0-0.003c-0.002-0.135-0.027-0.267-0.039-0.4c-0.014-0.168-0.018-0.335-0.049-0.501    c-0.002-0.006-0.004-0.013-0.006-0.019c-0.026-0.136-0.078-0.261-0.117-0.393c-0.014-0.047-0.026-0.094-0.042-0.141    c-0.036-0.112-0.061-0.229-0.106-0.339c-0.058-0.137-0.137-0.26-0.205-0.39c-0.072-0.137-0.135-0.278-0.221-0.409    c-0.003-0.004-0.005-0.01-0.008-0.014l-0.006-0.011c-0.002-0.001-0.002-0.002-0.002-0.002l-17.956-26.803    c-1.44-2.149-4.351-2.726-6.501-1.285s-2.726,4.351-1.285,6.501l13.078,19.521h-70.705L267.453,269.9    c-1.158-0.721-2.575-0.902-3.877-0.492c-1.303,0.408-2.361,1.364-2.9,2.617l-24.053,55.864l-46.471-51.391l57.745-67.923    l50.419,33.451c1.57,1.042,3.611,1.042,5.181,0l53.435-35.453l62.136-23.193l-5.862,17.504c-0.822,2.454,0.502,5.109,2.955,5.931    c0.493,0.166,0.996,0.243,1.488,0.243c1.959,0,3.787-1.238,4.443-3.198l8.98-26.815c0.02-0.061,0.023-0.124,0.042-0.186    c0.031-0.105,0.063-0.208,0.087-0.317c0.02-0.088,0.032-0.178,0.046-0.268c0.018-0.111,0.029-0.22,0.038-0.332    c0.009-0.1,0.019-0.198,0.021-0.299c0.002-0.089-0.004-0.177-0.007-0.266c-0.005-0.121-0.014-0.239-0.027-0.359    c-0.012-0.091-0.02-0.181-0.035-0.273c-0.016-0.089-0.039-0.177-0.061-0.266c-0.03-0.126-0.066-0.249-0.107-0.372    c-0.02-0.063-0.026-0.126-0.049-0.188c-0.008-0.02-0.021-0.037-0.029-0.057c-0.031-0.083-0.072-0.16-0.108-0.241    c-0.055-0.121-0.118-0.237-0.183-0.353c-0.046-0.082-0.084-0.168-0.134-0.246c-0.04-0.062-0.089-0.119-0.132-0.179    c-0.078-0.109-0.162-0.211-0.25-0.314c-0.069-0.082-0.133-0.167-0.207-0.243c-0.016-0.016-0.026-0.035-0.042-0.051l-17.964-17.876    c-1.836-1.825-4.802-1.819-6.627,0.017c-1.825,1.834-1.818,4.801,0.016,6.625l12.783,12.721l-64.991,24.259    c-0.335,0.125-0.654,0.288-0.952,0.486L300.906,232.5l-51.294-34.032c-1.978-1.313-4.623-0.938-6.161,0.87l-59.638,70.15    l-23.12-25.569c-1.736-1.92-4.699-2.067-6.618-0.333c-1.919,1.736-2.068,4.699-0.332,6.618l23.948,26.485l-33.024,38.845    c-1.676,1.971-1.436,4.928,0.535,6.604C146.083,322.888,147.161,323.254,148.235,323.254z" style="fill-rule:evenodd;clip-rule:evenodd;"/><rect height="17.849" style="fill-rule:evenodd;clip-rule:evenodd;" width="17.933" x="139.256" y="363.26"/><rect height="17.849" style="fill-rule:evenodd;clip-rule:evenodd;" width="17.935" x="175.204" y="363.26"/><rect height="17.849" style="fill-rule:evenodd;clip-rule:evenodd;" width="17.933" x="211.154" y="363.26"/><rect height="17.849" style="fill-rule:evenodd;clip-rule:evenodd;" width="17.935" x="247.102" y="363.26"/><rect height="17.849" style="fill-rule:evenodd;clip-rule:evenodd;" width="17.935" x="283.045" y="363.26"/><rect height="17.849" style="fill-rule:evenodd;clip-rule:evenodd;" width="17.935" x="318.993" y="363.26"/></g></g><g id="Layer_1"/></svg>