<?xml version="1.0" ?><svg viewBox="0 0 64 64" xmlns="http://www.w3.org/2000/svg"><title/><g data-name="Article Marketing" id="Article_Marketing"><g data-name="Article Marketing" id="Article_Marketing-2"><path d="M51,3H13a2,2,0,0,0-2,2V59a2,2,0,0,0,2,2H51a2,2,0,0,0,2-2V5A2,2,0,0,0,51,3Zm0,56H13V5H51Z"/><path d="M13,5V59H51V5Zm19,7H48V28H32ZM42,36v2H22V36ZM17,7H28V9H17Zm-2,5H30v2H15Zm0,3H30v2H15Zm0,3H30v2H15Zm0,3H30v2H15Zm0,3H30v2H15Zm0,3H30v2H15Zm0,3H30v2H15ZM49,56H22V54H49Zm0-3H22V51H49Zm0-3H22V48H49Zm0-3H22V45H49Zm0-3H22V42H49Zm0-3H22V39H49Z"/><rect height="12" width="12" x="34" y="14"/></g></g></svg>